<?xml version="1.0" encoding="iso-8859-1"?>
<!-- Generator: Adobe Illustrator 16.0.0, SVG Export Plug-In . SVG Version: 6.00 Build 0)  -->
<!DOCTYPE svg PUBLIC "-//W3C//DTD SVG 1.1//EN" "http://www.w3.org/Graphics/SVG/1.1/DTD/svg11.dtd">
<svg version="1.1" id="Capa_1" xmlns="http://www.w3.org/2000/svg" xmlns:xlink="http://www.w3.org/1999/xlink" x="0px" y="0px"
	 width="326.662px" height="326.661px" viewBox="0 0 326.662 326.661" style="enable-background:new 0 0 326.662 326.661;"
	 xml:space="preserve">
<g>
	<path d="M116.591,319.979c64.86,3.458,130.259-0.139,195.213,1.693c19.84,0.558,19.779-30.187,0-30.745
		c-2.822-0.084-5.645-0.113-8.467-0.18c-0.102-0.084-0.187-0.181-0.294-0.265c-15.349-11.354-21.462-42.394,0.144-50.681
		c2.096-0.805,3.808-1.927,5.242-3.242c0.703-0.012,1.405-0.006,2.107-0.018c5.032-0.103,8.773-2.162,11.248-5.17
		c2.941-2.427,4.737-6.222,4.125-11.476c-7.944-68.647-18.844-136.646-36.131-203.604c-1.628-6.299-8.143-11.71-14.826-11.289
		C202.157,9.615,129.276,8.895,56.381,8.816c-9.059-0.012-14.48,7.044-15.373,15.373c-7.833,73.115-18.095,147.964-40.22,218.298
		c-1.12,3.549-0.984,6.714,0.012,9.392c-0.222,1.97-0.381,3.993-0.447,6.131C-1.352,313.212,77.827,317.914,116.591,319.979z
		 M155.403,39.478c4.822-0.036,9.634-0.078,14.457-0.126c1.21,15.949,4.356,32.402,3.546,48.309
		c-1.64-1.261-3.252-2.594-4.843-4.101c-3.549-3.363-9.569-2.853-12.073,1.555c-0.213,0.385-0.504,0.673-0.742,1.027
		C154.142,70.72,154.992,55.012,155.403,39.478z M70.045,39.585c23.335,0.042,46.669,0.108,70.004,0.006
		c-0.48,21.461-1.69,43.066,2.958,64.155c1.336,6.059,8.737,6.906,12.844,3.393c2.952-2.516,5.75-4.726,8.295-7.2
		c3.567,2.756,7.323,5.176,11.619,7.128c4.144,1.897,10.287,0.696,11.289-4.594c3.951-20.873-0.504-42.274-1.885-63.351
		c25.977-0.444,51.947-1.279,77.899-2.727c13.787,55.881,23.359,112.428,30.385,169.539c-62.702,0.721-125.429-0.727-188.121-1.278
		c-19.479-0.168-43.16-1.369-63.102,3.32C55.883,152.836,63.791,95.851,70.045,39.585z M147.612,235.84
		c39.046,0.45,78.107,1.105,117.169,1.081c-7.914,16.159-7.182,35.891,0.847,53.148c-31.861-0.372-63.735-0.354-95.591-0.396
		c-24.442-0.03-48.804,0.175-73.195-1.729c-17.186-1.345-58.706-4.396-65.771-24.674C16.744,222.149,130.432,235.642,147.612,235.84
		z"/>
</g>
<g>
</g>
<g>
</g>
<g>
</g>
<g>
</g>
<g>
</g>
<g>
</g>
<g>
</g>
<g>
</g>
<g>
</g>
<g>
</g>
<g>
</g>
<g>
</g>
<g>
</g>
<g>
</g>
<g>
</g>
</svg>
